<!-- Generated by IcoMoon.io -->
<svg version="1.1" xmlns="http://www.w3.org/2000/svg" width="32" height="32" viewBox="0 0 32 32">
<title>account</title>
<path d="M16 0c-4.227 0-7.667 3.44-7.667 7.667s3.44 7.667 7.667 7.667c4.227 0 7.667-3.439 7.667-7.667s-3.44-7.667-7.667-7.667zM10.041 7.667c0-3.287 2.673-5.959 5.959-5.959s5.959 2.673 5.959 5.959c0 3.286-2.673 5.959-5.959 5.959s-5.959-2.673-5.959-5.959z"></path>
<path d="M9.542 18.667c-3.791 0-6.875 3.166-6.875 7.056v5.458c0 0.452 0.357 0.819 0.798 0.819h25.071c0.44 0 0.798-0.367 0.798-0.819v-5.458c0-3.89-3.085-7.056-6.875-7.056h-12.916zM4.262 25.723c0-2.988 2.369-5.419 5.28-5.419h12.916c2.911 0 5.28 2.431 5.28 5.419v4.639h-23.476v-4.639z"></path>
</svg>
