<!-- Generated by IcoMoon.io -->
<svg version="1.1" xmlns="http://www.w3.org/2000/svg" width="32" height="32" viewBox="0 0 32 32">
<title>calendar</title>
<path d="M28.682 3.552h-2.009v-1.675c0-0.482-0.375-0.877-0.834-0.877s-0.834 0.395-0.834 0.877v1.675h-8.169v-1.675c0-0.482-0.375-0.877-0.834-0.877s-0.834 0.395-0.834 0.877v1.675h-8.252v-1.675c0-0.482-0.375-0.877-0.834-0.877s-0.834 0.395-0.834 0.877v1.675h-1.925c-1.834 0-3.326 1.622-3.326 3.552v20.389c0 1.938 1.484 3.508 3.326 3.508h25.348c1.842 0 3.326-1.57 3.326-3.499v-20.398c0.008-1.929-1.484-3.552-3.318-3.552zM30.341 27.492c0 0.965-0.734 1.745-1.65 1.754h-25.365c-0.917 0-1.659-0.781-1.659-1.745v-20.398c0-0.973 0.742-1.798 1.659-1.798h1.925v1.272c0 0.482 0.375 0.877 0.834 0.877s0.834-0.395 0.834-0.877v-1.272h8.252v1.272c0 0.482 0.375 0.877 0.834 0.877s0.834-0.395 0.834-0.877v-1.272h8.169v1.272c0 0.482 0.375 0.877 0.834 0.877s0.834-0.395 0.834-0.877v-1.272h2.009c0.925 0 1.659 0.833 1.659 1.798v20.389z"></path>
</svg>
