<!-- Generated by IcoMoon.io -->
<svg version="1.1" xmlns="http://www.w3.org/2000/svg" width="32" height="32" viewBox="0 0 32 32">
<title>cross-circle</title>
<path d="M16 0c-8.822 0-16 7.178-16 16s7.178 16 16 16c8.822 0 16-7.178 16-16s-7.178-16-16-16zM16 30.897c-8.215 0-14.897-6.681-14.897-14.897s6.681-14.897 14.897-14.897c8.215 0 14.897 6.681 14.897 14.897s-6.681 14.897-14.897 14.897z"></path>
<path d="M16.584 16l4.629-4.629c0.038-0.038 0.069-0.084 0.090-0.134s0.031-0.104 0.031-0.158c0-0.054-0.011-0.108-0.031-0.158s-0.051-0.096-0.090-0.134c-0.038-0.038-0.084-0.069-0.134-0.089s-0.104-0.031-0.158-0.031c-0.054 0-0.108 0.011-0.158 0.031s-0.096 0.051-0.134 0.089l-4.629 4.629-4.629-4.629c-0.077-0.077-0.182-0.121-0.292-0.121s-0.214 0.043-0.292 0.121c-0.077 0.077-0.121 0.182-0.121 0.292s0.043 0.214 0.121 0.292l4.629 4.629-4.629 4.629c-0.077 0.077-0.121 0.182-0.121 0.292s0.043 0.214 0.121 0.292c0.077 0.077 0.182 0.121 0.292 0.121s0.214-0.044 0.292-0.121l4.629-4.629 4.629 4.629c0.038 0.038 0.084 0.069 0.134 0.090s0.104 0.031 0.158 0.031c0.054 0 0.108-0.011 0.158-0.031s0.096-0.051 0.134-0.090c0.038-0.038 0.069-0.084 0.090-0.134s0.031-0.104 0.031-0.158c0-0.054-0.011-0.108-0.031-0.158s-0.051-0.096-0.090-0.134l-4.629-4.629z"></path>
</svg>
