<!-- Generated by IcoMoon.io -->
<svg version="1.1" xmlns="http://www.w3.org/2000/svg" width="32" height="32" viewBox="0 0 32 32">
<title>cross-square</title>
<path d="M1.776 0.305c-0.406-0.406-1.065-0.406-1.471 0s-0.406 1.065 0 1.471l14.224 14.224-14.224 14.224c-0.406 0.406-0.406 1.065 0 1.471s1.065 0.406 1.471 0l14.224-14.224 14.224 14.224c0.406 0.406 1.065 0.406 1.471 0s0.406-1.065 0-1.471l-14.224-14.224 14.224-14.224c0.406-0.406 0.406-1.065 0-1.471s-1.065-0.406-1.471 0l-14.224 14.224-14.224-14.224z"></path>
</svg>
