<!-- Generated by IcoMoon.io -->
<svg version="1.1" xmlns="http://www.w3.org/2000/svg" width="32" height="32" viewBox="0 0 32 32">
<title>done-circle</title>
<path d="M16 0c-8.822 0-16 7.178-16 16s7.178 16 16 16c8.822 0 16-7.178 16-16s-7.178-16-16-16zM16 30.897c-8.215 0-14.897-6.681-14.897-14.897s6.681-14.897 14.897-14.897c8.215 0 14.897 6.681 14.897 14.897s-6.681 14.897-14.897 14.897zM24.888 10.201c0.215 0.215 0.215 0.563 0 0.778l-10.041 10.041c-0.105 0.105-0.243 0.16-0.392 0.16s-0.287-0.061-0.392-0.16l-5.407-5.407c-0.215-0.215-0.215-0.563 0-0.778s0.563-0.215 0.778 0l5.015 5.015 9.65-9.65c0.221-0.215 0.574-0.215 0.789 0z"></path>
</svg>
