<svg width="12" height="12" viewBox="0 0 12 12" fill="none" xmlns="http://www.w3.org/2000/svg">
<g clip-path="url(#clip0_193_13212)">
<path d="M6 0C2.69172 0 0 2.69172 0 6C0 9.30828 2.69172 12 6 12C9.30828 12 12 9.30828 12 6C12 2.69172 9.30828 0 6 0ZM6 11.5862C2.91931 11.5862 0.413793 9.08069 0.413793 6C0.413793 2.91931 2.91931 0.413793 6 0.413793C9.08069 0.413793 11.5862 2.91931 11.5862 6C11.5862 9.08069 9.08069 11.5862 6 11.5862ZM9.3331 3.82552C9.41379 3.90621 9.41379 4.03655 9.3331 4.11724L5.56759 7.88276C5.52828 7.92207 5.47655 7.94276 5.42069 7.94276C5.36483 7.94276 5.3131 7.92 5.27379 7.88276L3.24621 5.85517C3.16552 5.77448 3.16552 5.64414 3.24621 5.56345C3.3269 5.48276 3.45724 5.48276 3.53793 5.56345L5.41862 7.44414L9.03724 3.82552C9.12 3.74483 9.25241 3.74483 9.3331 3.82552Z" fill="#24D17E"/>
</g>
<defs>
<clipPath id="clip0_193_13212">
<rect width="12" height="12" fill="white"/>
</clipPath>
</defs>
</svg>
