<?xml version="1.0" encoding="utf-8"?><svg viewBox="0 0 40 40" xmlns="http://www.w3.org/2000/svg" xmlns:xlink="http://www.w3.org/1999/xlink"><style>:root>svg{display:none}:root>svg:target{display:block}</style><svg fill="none" viewBox="0 0 24 24" id="account" xmlns="http://www.w3.org/2000/svg"><path fill-rule="evenodd" clip-rule="evenodd" d="M12 0C8.83 0 6.25 2.58 6.25 5.75S8.83 11.5 12 11.5s5.75-2.58 5.75-5.75S15.17 0 12 0zM7.53 5.75A4.474 4.474 0 0112 1.28a4.474 4.474 0 014.47 4.47A4.474 4.474 0 0112 10.22a4.474 4.474 0 01-4.47-4.47zM7.157 14C4.314 14 2 16.375 2 19.292v4.094c0 .339.268.614.598.614h18.804c.33 0 .598-.275.598-.614v-4.094C22 16.375 19.686 14 16.843 14H7.157zm-3.96 5.292c0-2.24 1.776-4.064 3.96-4.064h9.686c2.184 0 3.96 1.823 3.96 4.064v3.48H3.197v-3.48z" fill="#FF7010"/></svg><svg fill="none" viewBox="0 0 12 12" id="arrowsvg" xmlns="http://www.w3.org/2000/svg"><g clip-path="url(#bclip0_9416_12140)"><path d="M12 3.263a.57.57 0 01-.16.397L6.386 9.285a.534.534 0 01-.772 0L.16 3.66a.575.575 0 010-.795.534.534 0 01.771 0L6 8.092l5.069-5.227a.534.534 0 01.771 0 .57.57 0 01.16.398z" fill="#191919"/></g><defs><clipPath id="bclip0_9416_12140"><path fill="#fff" d="M0 0h12v12H0z"/></clipPath></defs></svg><svg fill="none" viewBox="0 0 16 16" id="calendar" xmlns="http://www.w3.org/2000/svg"><g clip-path="url(#cclip0_215_18000)"><path d="M14.341 1.776h-1.004V.938A.43.43 0 0012.92.5a.43.43 0 00-.417.438v.838H8.42V.938A.43.43 0 008.002.5a.43.43 0 00-.417.438v.838H3.46V.938A.43.43 0 003.042.5a.43.43 0 00-.416.438v.838h-.963C.746 1.776 0 2.587 0 3.552v10.194c0 .97.742 1.754 1.663 1.754h12.674c.921 0 1.663-.785 1.663-1.75V3.553c.004-.965-.742-1.776-1.659-1.776zm.83 11.97c0 .482-.367.873-.826.877H1.663c-.459 0-.83-.39-.83-.872V3.551c0-.487.371-.9.83-.9h.963v.637a.43.43 0 00.416.438.43.43 0 00.417-.438v-.636h4.126v.636a.43.43 0 00.417.438.43.43 0 00.417-.438v-.636h4.084v.636a.43.43 0 00.417.438.43.43 0 00.417-.438v-.636h1.004c.463 0 .83.416.83.899v10.194z" fill="#A5A5A5"/></g><defs><clipPath id="cclip0_215_18000"><path fill="#fff" d="M0 0h16v16H0z"/></clipPath></defs></svg><svg fill="none" viewBox="0 0 24 24" id="cart" xmlns="http://www.w3.org/2000/svg"><g clip-path="url(#dclip0_225_14066)" fill="#fff"><path d="M7.781 15.5h12.704a.7.7 0 00.675-.508l2.813-9.8a.697.697 0 00-.676-.892H6.158l-.503-2.252A.702.702 0 004.97 1.5H.703a.701.701 0 100 1.4h3.701l2.54 11.375A2.101 2.101 0 005.672 16.2c0 1.158.946 2.1 2.11 2.1h12.703a.701.701 0 100-1.4H7.78a.702.702 0 01-.703-.7c0-.386.316-.7.703-.7z"/><path d="M7.078 20.4c0 1.158.946 2.1 2.11 2.1 1.163 0 2.11-.942 2.11-2.1 0-1.158-.947-2.1-2.11-2.1-1.164 0-2.11.942-2.11 2.1zM16.969 20.4c0 1.158.946 2.1 2.11 2.1 1.162 0 2.109-.942 2.109-2.1 0-1.158-.947-2.1-2.11-2.1-1.163 0-2.11.942-2.11 2.1z"/></g><defs><clipPath id="dclip0_225_14066"><path fill="#fff" d="M0 0h24v24H0z"/></clipPath></defs></svg><svg fill="none" viewBox="0 0 12 12" id="cross" xmlns="http://www.w3.org/2000/svg"><g clip-path="url(#eclip0_193_13216)" fill="#A5A5A5"><path d="M6 0C2.692 0 0 2.692 0 6s2.692 6 6 6 6-2.692 6-6-2.692-6-6-6zm0 11.586A5.592 5.592 0 01.414 6 5.592 5.592 0 016 .414 5.592 5.592 0 0111.586 6 5.592 5.592 0 016 11.586z"/><path d="M6.219 6l1.736-1.736a.155.155 0 10-.22-.219L6 5.781 4.264 4.045a.155.155 0 10-.219.22L5.781 6 4.045 7.736a.155.155 0 10.22.219L6 6.219l1.736 1.736a.155.155 0 10.219-.22L6.219 6z"/></g><defs><clipPath id="eclip0_193_13216"><path fill="#fff" d="M0 0h12v12H0z"/></clipPath></defs></svg><svg fill="none" viewBox="0 0 24 24" id="cross-square" xmlns="http://www.w3.org/2000/svg"><g clip-path="url(#fclip0_187_8822)"><path fill-rule="evenodd" clip-rule="evenodd" d="M1.332.229A.78.78 0 00.23 1.332L10.896 12 .23 22.668a.78.78 0 101.103 1.103L12 13.104 22.668 23.77a.78.78 0 101.103-1.103L13.104 12 23.77 1.332A.78.78 0 1022.668.23L12 10.896 1.332.23z" fill="#191919"/></g><defs><clipPath id="fclip0_187_8822"><path fill="#fff" d="M0 0h24v24H0z"/></clipPath></defs></svg><svg fill="none" viewBox="0 0 12 12" id="done" xmlns="http://www.w3.org/2000/svg"><g clip-path="url(#gclip0_193_13212)"><path d="M6 0C2.692 0 0 2.692 0 6s2.692 6 6 6 6-2.692 6-6-2.692-6-6-6zm0 11.586A5.592 5.592 0 01.414 6 5.592 5.592 0 016 .414 5.592 5.592 0 0111.586 6 5.592 5.592 0 016 11.586zm3.333-7.76c.08.08.08.21 0 .291L5.568 7.883a.205.205 0 01-.147.06.214.214 0 01-.147-.06L3.246 5.855a.206.206 0 11.292-.292l1.88 1.881 3.62-3.618a.211.211 0 01.295 0z" fill="#24D17E"/></g><defs><clipPath id="gclip0_193_13212"><path fill="#fff" d="M0 0h12v12H0z"/></clipPath></defs></svg><svg fill="none" viewBox="0 0 20 20" id="facebook" xmlns="http://www.w3.org/2000/svg"><path fill-rule="evenodd" clip-rule="evenodd" d="M0 10.056C0 15.028 3.611 19.162 8.333 20l.056-.045-.056-.01v-7.096h-2.5v-2.793h2.5V7.821c0-2.514 1.611-3.91 3.89-3.91.721 0 1.5.111 2.221.223v2.57h-1.277c-1.223 0-1.5.615-1.5 1.397v1.955h2.666l-.444 2.793h-2.222v7.095a5.476 5.476 0 01-.056.011l.056.045C16.389 19.162 20 15.028 20 10.056 20 4.526 15.5 0 10 0S0 4.525 0 10.056z" fill="#FF7010"/></svg><svg fill="none" viewBox="0 0 12 12" id="filter" xmlns="http://www.w3.org/2000/svg"><g clip-path="url(#iclip0_139_8560)"><path d="M4.75 12a.25.25 0 01-.25-.25V6.699a.75.75 0 00-.252-.56L.419 2.736A1.252 1.252 0 010 1.8V.75A.75.75 0 01.75 0h10.5a.75.75 0 01.75.75V1.8c0 .36-.153.702-.42.937L7.753 6.14a.75.75 0 00-.252.56v3.268a.753.753 0 01-.364.643l-2.258 1.354A.244.244 0 014.75 12zM.75.5A.25.25 0 00.5.75V1.8a.75.75 0 00.25.562l3.83 3.402c.266.237.42.578.42.935v4.61l1.879-1.127A.252.252 0 007 9.966V6.699c0-.356.154-.697.42-.934l3.829-3.401A.753.753 0 0011.5 1.8V.75a.25.25 0 00-.25-.25H.75z" fill="#FF7010"/></g><defs><clipPath id="iclip0_139_8560"><path fill="#fff" d="M0 0h12v12H0z"/></clipPath></defs></svg><svg fill="none" viewBox="0 0 24 24" id="info" xmlns="http://www.w3.org/2000/svg"><path d="M12.033 10c-.414 0-.75.371-.75.83v5.34c0 .459.336.83.75.83s.75-.371.75-.83v-5.34c0-.459-.336-.83-.75-.83zM12 9a1 1 0 100-2 1 1 0 000 2z" fill="#A5A5A5"/><circle cx="12" cy="12" r="11.25" stroke="#A5A5A5" stroke-width="1.5"/></svg><svg fill="none" viewBox="0 0 20 20" id="instagram" xmlns="http://www.w3.org/2000/svg"><path d="M10.004.008c-2.718 0-3.06.012-4.127.058-1.062.05-1.792.221-2.426.467A4.902 4.902 0 001.68 1.687a4.9 4.9 0 00-1.155 1.77C.275 4.092.108 4.82.058 5.884.013 6.95 0 7.291 0 10.008c0 2.709.013 3.054.058 4.117.05 1.066.221 1.792.467 2.43a4.9 4.9 0 001.155 1.77c.5.509 1.104.903 1.771 1.154.634.246 1.364.417 2.426.463 1.068.05 1.41.058 4.127.058 2.71 0 3.056-.008 4.119-.058 1.067-.05 1.792-.217 2.43-.463a4.905 4.905 0 001.771-1.154 4.9 4.9 0 001.155-1.77c.246-.638.417-1.364.463-2.43.05-1.063.058-1.404.058-4.121 0-2.713-.008-3.054-.058-4.121-.05-1.063-.217-1.792-.463-2.425a4.9 4.9 0 00-1.155-1.771A4.902 4.902 0 0016.553.533c-.638-.25-1.363-.417-2.43-.467a70.976 70.976 0 00-4.119-.058zm0 1.8c2.668 0 2.985.012 4.04.058.975.046 1.5.209 1.854.346.467.18.8.396 1.15.75.333.321.59.713.751 1.146.134.354.3.883.342 1.858.05 1.055.058 1.371.058 4.042 0 2.667-.008 2.984-.058 4.038-.042.975-.208 1.5-.342 1.854-.16.434-.417.828-.75 1.15-.323.333-.716.59-1.15.75-.35.133-.88.3-1.856.342-1.054.05-1.375.058-4.043.058s-2.985-.008-4.043-.058c-.972-.042-1.501-.209-1.855-.342a3.095 3.095 0 01-1.15-.75A3.095 3.095 0 012.2 15.9c-.133-.35-.296-.88-.342-1.854a69.354 69.354 0 01-.058-4.042c0-2.667.012-2.983.058-4.042.046-.97.209-1.5.346-1.854.16-.435.417-.828.75-1.15a3.097 3.097 0 011.147-.75c.354-.133.883-.296 1.859-.342 1.054-.046 1.371-.058 4.043-.058zm0 3.062a5.137 5.137 0 00-5.135 5.134 5.132 5.132 0 005.135 5.133 5.137 5.137 0 005.136-5.133 5.132 5.132 0 00-5.136-5.134zm0 8.471a3.336 3.336 0 01-3.335-3.333 3.333 3.333 0 013.335-3.333 3.335 3.335 0 013.335 3.333 3.333 3.333 0 01-3.335 3.334zm6.536-8.666a1.2 1.2 0 10-2.4 0 1.2 1.2 0 002.4 0z" fill="#FF7010"/></svg><svg fill="none" viewBox="0 0 20 20" id="location" xmlns="http://www.w3.org/2000/svg"><path d="M10.02 3.906c-1.476-.01-2.685 1.206-2.696 2.714-.011 1.508 1.18 2.744 2.656 2.755H10c1.467 0 2.665-1.213 2.676-2.714.011-1.507-1.18-2.743-2.656-2.755zM10 8.594h-.014C8.93 8.586 8.08 7.703 8.088 6.626c.008-1.072.864-1.938 1.912-1.938h.014c1.055.008 1.906.89 1.898 1.967-.008 1.072-.864 1.939-1.912 1.939z" fill="#FF7010"/><path d="M12.346 14.705c2.543-3.345 4.132-5.088 4.154-8.014C16.527 3.009 13.602 0 10 0 6.437 0 3.526 2.946 3.5 6.591c-.022 3.005 1.597 4.747 4.158 8.113-2.548.39-4.158 1.366-4.158 2.562 0 .8.725 1.519 2.04 2.023C6.737 19.747 8.321 20 10 20c1.679 0 3.263-.253 4.46-.711 1.315-.504 2.04-1.223 2.04-2.023 0-1.195-1.609-2.172-4.154-2.561zM4.265 6.597C4.289 3.38 6.857.78 9.999.78c3.18 0 5.76 2.656 5.736 5.904-.02 2.778-1.706 4.49-4.396 8.075-.48.638-.921 1.243-1.338 1.833a73.87 73.87 0 00-1.336-1.834c-2.802-3.734-4.42-5.316-4.4-8.162zM10 19.219c-3.282 0-5.735-1.031-5.735-1.953 0-.684 1.466-1.548 3.931-1.847a69.5 69.5 0 011.492 2.072.38.38 0 00.312.165.38.38 0 00.312-.164c.464-.67.955-1.35 1.495-2.073 2.463.3 3.928 1.163 3.928 1.847 0 .922-2.452 1.953-5.735 1.953z" fill="#FF7010"/></svg><svg fill="none" viewBox="0 0 8 8" id="minus" xmlns="http://www.w3.org/2000/svg"><path d="M8 4a.75.75 0 00-.75-.75H.75a.75.75 0 000 1.5h6.5A.75.75 0 008 4z" fill="#FF7010"/></svg><svg fill="none" viewBox="0 0 40 40" id="mushrooms" xmlns="http://www.w3.org/2000/svg"><path d="M24.053 16.14c-4.687-4.686-7.22-5.628-8.895-6.25-.708-.264-1.136-.423-1.495-.783-.313-.312-.278-.57-.142-.706.157-.157.385-.11.624.129.039.04.082.074.127.103a4.439 4.439 0 003.022 1.177 4.441 4.441 0 003.162-1.31 4.476 4.476 0 000-6.323C18.64.363 15.973-.353 12.94.163 10.01.661 7.072 2.26 4.666 4.666 2.26 7.072.661 10.011.163 12.94c-.515 3.032.2 5.702 2.014 7.516a4.476 4.476 0 006.323 0 4.476 4.476 0 00.036-6.287l-.015-.016c-.24-.239-.286-.466-.13-.623.138-.136.395-.171.708.142.36.36.518.787.781 1.494.623 1.676 1.565 4.209 6.252 8.896a.81.81 0 001.149 0l6.772-6.772a.813.813 0 000-1.15zm-7.343 6.194c-3.942-4.063-4.758-6.258-5.307-7.733-.293-.788-.545-1.468-1.155-2.078-.505-.504-1.074-.714-1.604-.714a1.99 1.99 0 00-1.401.572c-.683.684-.867 1.884.086 2.877a2.85 2.85 0 01.023 4.049 2.85 2.85 0 01-4.026 0c-1.431-1.432-1.986-3.596-1.561-6.094.442-2.601 1.88-5.228 4.05-7.398s4.797-3.608 7.398-4.05c2.498-.425 4.662.13 6.094 1.56a2.85 2.85 0 010 4.026 2.828 2.828 0 01-2.013.834c-.76 0-1.475-.296-2.013-.834a.818.818 0 00-.14-.112c-.97-.84-2.11-.646-2.768.013-.694.694-.88 1.983.141 3.004.61.61 1.29.863 2.078 1.156 1.475.548 3.67 1.365 7.734 5.307l-5.616 5.615zM39.86 28.42c-.422-2.488-1.779-4.982-3.819-7.022s-4.534-3.397-7.021-3.82c-2.59-.44-4.873.174-6.428 1.729a3.89 3.89 0 000 5.496 3.86 3.86 0 002.748 1.138 3.86 3.86 0 002.73-1.12c.093-.093.184-.147.252-.148.04-.002.07.021.088.039a.16.16 0 01.046.116c-.001.085-.06.19-.165.294-.327.328-.97.686-1.783 1.14-1.961 1.095-4.926 2.749-8.838 6.661a.813.813 0 000 1.149l5.69 5.69a.81.81 0 001.149 0c3.912-3.913 5.566-6.877 6.661-8.839.454-.813.812-1.455 1.14-1.783.163-.163.32-.208.41-.119.1.101-.025.257-.108.34a.809.809 0 00-.098.118 3.857 3.857 0 00-1.016 2.62c0 1.038.404 2.014 1.138 2.748a3.89 3.89 0 005.496 0c1.555-1.555 2.169-3.837 1.729-6.428zm-2.877 5.279a2.264 2.264 0 01-3.198 0 2.247 2.247 0 01-.662-1.6c0-.604.235-1.172.662-1.599a.816.816 0 00.108-.133c.74-.867.556-1.914-.024-2.494-.628-.628-1.79-.8-2.708.118-.488.488-.874 1.18-1.41 2.14-.996 1.785-2.475 4.435-5.822 7.903l-4.531-4.532c3.467-3.347 6.117-4.826 7.902-5.821.96-.536 1.653-.923 2.14-1.41.918-.918.747-2.08.119-2.708-.604-.604-1.711-.778-2.597.069a2.264 2.264 0 01-3.222.023 2.247 2.247 0 01-.662-1.6c0-.604.235-1.172.663-1.6 1.172-1.171 2.95-1.624 5.006-1.275 2.159.367 4.341 1.563 6.145 3.367 1.804 1.804 3 3.986 3.366 6.145.35 2.056-.103 3.834-1.275 5.007z" fill="#FF7010"/></svg><svg fill="none" viewBox="0 0 21 20" id="pencil" xmlns="http://www.w3.org/2000/svg"><path d="M1.959 14.457a.77.77 0 01-.544-1.314L13.443 1.115a.77.77 0 111.088 1.089L2.503 14.232a.768.768 0 01-.544.225z" fill="#FF7010"/><path d="M.77 20a.77.77 0 01-.753-.931l1.19-5.543a.77.77 0 011.505.323l-1.19 5.543A.77.77 0 01.77 20zM6.315 18.811a.77.77 0 01-.544-1.314L17.797 5.47a.77.77 0 111.089 1.088L6.859 18.585a.768.768 0 01-.544.226z" fill="#FF7010"/><path d="M.77 20a.77.77 0 01-.162-1.522l5.543-1.19a.77.77 0 01.323 1.506L.931 19.983A.75.75 0 01.77 20zM16.162 8.96a.766.766 0 01-.544-.226l-4.354-4.353a.77.77 0 111.089-1.089l4.354 4.354a.77.77 0 01-.545 1.314zM18.343 6.783a.77.77 0 01-.545-1.314 2.289 2.289 0 00.665-1.632c0-.625-.236-1.205-.665-1.633a2.289 2.289 0 00-1.633-.665c-.624 0-1.204.236-1.632.665a.77.77 0 11-1.089-1.089A3.816 3.816 0 0116.165 0c1.036 0 2.003.396 2.722 1.115a3.816 3.816 0 011.115 2.722 3.816 3.816 0 01-1.115 2.72.766.766 0 01-.544.226z" fill="#FF7010"/></svg><svg fill="none" viewBox="0 0 20 20" id="phone" xmlns="http://www.w3.org/2000/svg"><path d="M4.053 13.295a21.287 21.287 0 007.084 5.528c1.036.49 2.421 1.07 3.965 1.169.095.004.187.008.283.008 1.035 0 1.867-.356 2.545-1.09.005-.004.013-.012.017-.02.241-.29.516-.552.803-.83.195-.186.395-.38.587-.58.886-.92.886-2.088-.009-2.98l-2.5-2.49c-.424-.44-.932-.671-1.464-.671-.533 0-1.044.232-1.481.667l-1.49 1.483a7.927 7.927 0 00-.411-.215 5.165 5.165 0 01-.458-.249c-1.356-.858-2.587-1.976-3.765-3.415-.594-.75-.994-1.38-1.273-2.022.392-.352.758-.721 1.111-1.082.125-.128.254-.257.383-.385.45-.448.69-.966.69-1.492s-.237-1.044-.69-1.492L6.74 1.902c-.145-.145-.283-.286-.424-.43A22.774 22.774 0 005.47.637C5.043.22 4.54 0 4.007 0c-.528 0-1.036.22-1.48.642L.97 2.192a3.18 3.18 0 00-.952 2.04c-.08.99.104 2.042.578 3.315.728 1.968 1.826 3.796 3.457 5.748zm-3.02-8.977c.05-.55.262-1.01.661-1.409l1.548-1.541c.241-.232.507-.353.765-.353.254 0 .512.12.749.36.279.258.54.527.824.813.141.145.287.29.432.44l1.24 1.234c.258.257.39.518.39.775s-.132.518-.39.775c-.13.129-.258.261-.387.39-.387.39-.749.758-1.148 1.11l-.02.021c-.346.344-.292.672-.209.92.004.013.008.021.013.033.32.767.765 1.497 1.46 2.367 1.248 1.533 2.562 2.723 4.01 3.638.179.117.37.208.549.299.166.083.32.161.458.248l.045.025c.138.07.27.104.404.104.333 0 .549-.211.62-.282l1.555-1.55c.242-.24.504-.369.762-.369.316 0 .574.195.736.37l2.508 2.494c.5.497.495 1.036-.012 1.562-.175.187-.358.365-.553.552-.291.281-.595.572-.87.899-.478.514-1.048.754-1.784.754-.071 0-.146-.004-.217-.008-1.364-.087-2.633-.618-3.586-1.07a20.222 20.222 0 01-6.743-5.263c-1.551-1.86-2.595-3.593-3.286-5.45-.429-1.139-.59-2.055-.524-2.888z" fill="#FF7010"/></svg><svg fill="none" viewBox="0 0 8 8" id="plus" xmlns="http://www.w3.org/2000/svg"><g clip-path="url(#qclip0_214_14918)" fill="#FF7010"><path d="M8 4a.75.75 0 00-.75-.75H.75a.75.75 0 000 1.5h6.5A.75.75 0 008 4z"/><path d="M4 8a.75.75 0 00.75-.75V.75a.75.75 0 00-1.5 0v6.5c0 .414.336.75.75.75z"/></g><defs><clipPath id="qclip0_214_14918"><path fill="#fff" d="M0 0h8v8H0z"/></clipPath></defs></svg><svg fill="none" viewBox="0 0 16 14" id="send" xmlns="http://www.w3.org/2000/svg"><path d="M15.047 5.594L2.137.317A1.555 1.555 0 00.536.573a1.5 1.5 0 00-.486 1.526l1.149 4.44h5.626c.258 0 .468.206.468.461s-.21.462-.468.462H1.198L.048 11.9a1.5 1.5 0 00.487 1.526c.446.38 1.06.477 1.603.255l12.91-5.276c.587-.24.952-.78.952-1.406 0-.627-.365-1.166-.953-1.406z" fill="#fff"/></svg></svg>